<?xml version="1.0" encoding="UTF-8" standalone="no"?>
<!-- Created with Inkscape (http://www.inkscape.org/) -->

<svg
   width="114.09091mm"
   height="128.85211mm"
   viewBox="0 0 114.09091 128.85211"
   version="1.1"
   id="svg1"
   xml:space="preserve"
   inkscape:export-filename="stretch"
   inkscape:export-xdpi="96"
   inkscape:export-ydpi="96"
   xmlns:inkscape="http://www.inkscape.org/namespaces/inkscape"
   xmlns:sodipodi="http://sodipodi.sourceforge.net/DTD/sodipodi-0.dtd"
   xmlns:xlink="http://www.w3.org/1999/xlink"
   xmlns="http://www.w3.org/2000/svg"
   xmlns:svg="http://www.w3.org/2000/svg"><sodipodi:namedview
     id="namedview1"
     pagecolor="#ffffff"
     bordercolor="#cccccc"
     borderopacity="1"
     inkscape:showpageshadow="0"
     inkscape:pageopacity="1"
     inkscape:pagecheckerboard="0"
     inkscape:deskcolor="#d1d1d1"
     inkscape:document-units="mm"><inkscape:page
       x="0"
       y="0"
       width="114.09091"
       height="128.85211"
       id="page2"
       margin="0"
       bleed="0" /></sodipodi:namedview><defs
     id="defs1"><linearGradient
       id="linearGradient1"><stop
         style="stop-color:#f4ff00;stop-opacity:1;"
         offset="0"
         id="stop3" /><stop
         style="stop-color:#ff00aa;stop-opacity:1;"
         offset="1"
         id="stop4" /></linearGradient><linearGradient
       inkscape:collect="always"
       xlink:href="#linearGradient1"
       id="linearGradient2"
       x1="48.420841"
       y1="111.49165"
       x2="156.54143"
       y2="148.72055"
       gradientUnits="userSpaceOnUse" /></defs><g
     inkscape:label="Calque 1"
     inkscape:groupmode="layer"
     id="layer1"
     transform="translate(-45.406438,-65.594707)"><path
       d="m 67.68693,65.594699 0.26458,0.26458 -0.26458,-0.26458 m -2.11667,1.05833 0.26459,0.26458 -0.26459,-0.26458 m 2.38125,0.26458 v 3.96875 h 0.26459 l -0.26459,-3.96875 m 2.38126,0 v 4.23334 h 0.26459 l -0.26459,-4.23334 m -4.49792,0.26459 v 2.11666 h 0.26458 l -0.26458,-2.11666 m 3.52778,1.23472 0.0882,0.17638 -0.0882,-0.17638 m 3.61598,1.14653 v 0.79375 h 0.26458 l -0.26458,-0.79375 m -6.87918,0.26458 v 1.85208 h 0.26458 l -0.26458,-1.85208 m 2.91043,0 v 1.85208 h 0.26458 l -0.26458,-1.85208 m -4.23335,0.26458 0.26459,0.26459 -0.26459,-0.26459 m 7.93751,0.52917 -0.26458,1.85208 h 0.26458 v -1.85208 m -7.93751,0.26458 v 1.5875 h 0.26459 l -0.26459,-1.5875 m 3.43959,0.26459 v 1.5875 h 0.26458 l -0.26458,-1.5875 m 1.85209,0.26458 v 1.85208 h 0.26458 0.26459 l -0.52917,-1.85208 m -3.08682,0.44098 0.0882,0.17638 -0.0882,-0.17638 m 4.40974,0.0882 0.26458,0.26458 -0.26458,-0.26458 m -4.49793,0.79375 0.26458,0.26458 -0.26458,-0.26458 m 5.29168,0 -0.26459,2.64583 h 0.26459 v -2.64583 m -11.641685,0.26458 c -0.0189,1.26528 0.8603,1.94465 1.85208,2.64583 l -1.85208,-2.64583 m 0.97015,0.0882 0.17637,0.0882 -0.17637,-0.0882 m 3.351375,0.0882 0.0882,0.17638 -0.0882,-0.17638 m -2.734025,0.0882 1.05833,1.05833 -1.05833,-1.05833 m 2.645835,0.79375 v 1.32292 h 0.26459 l -0.26459,-1.32293 m -1.322915,0.79375 0.26458,0.26459 -0.26458,-0.26459 m 0.529165,0.52917 0.52917,0.52917 -0.52917,-0.52917 m 0.79375,0.26458 0.26459,0.26459 -0.26459,-0.26459 m -2.381255,0.26459 3.439595,5.82083 h 0.26458 c 0.0701,-2.056 -2.28104,-4.45753 -3.704175,-5.82083 m 9.260435,0 -1.10773,4.7625 0.84315,9.525 h -0.26459 l -1.32291,-6.61459 h -0.26459 l 2.29122,13.22917 -0.9683,5.820831 h -0.26458 v -1.05833 h -0.26459 l 0.52917,4.23333 H 70.59736 L 68.48068,102.3718 H 68.2161 l -0.26459,0.79375 c 1.26948,0.39554 1.89433,1.94668 2.11668,3.175 l -1.85209,-2.64583 h -0.26459 l 2.64585,5.82083 h 0.26458 l 1.5875,-8.20208 h 0.26458 l 1.05834,1.05833 -0.26459,5.02708 h 0.26459 l 0.79375,-2.64583 h 0.26458 l 0.50814,8.99583 -0.50814,6.08542 c -1.02825,-1.21058 -2.65087,-3.16578 -2.94349,-4.7625 -0.1715,-0.93586 0.88422,-2.9689 -0.49609,-3.175 v -1.05833 h -0.52917 l -1.32292,6.08541 h 0.26459 l 0.26458,-0.79375 h 0.26458 l 2.64584,6.61458 -3.175,-5.29166 h -0.26459 v 1.05833 l -1.32292,-1.05833 0.52917,1.05833 -2.38126,-2.11667 3.70418,5.55625 0.52917,-0.52916 3.70416,6.35 h 0.26459 l -0.52917,-2.91042 h 0.26458 l 1.5875,3.96875 h 0.26459 l -0.52917,-1.32292 c 2.15819,2.15818 5.57266,6.73148 5.29167,9.26042 -0.12616,1.13541 -0.1071,2.88364 -1.05834,2.64583 l 0.26459,0.79375 -0.52917,0.79375 h -0.26458 v -1.5875 h -0.26459 c -0.0284,1.07773 -2.15663,4.38648 -2.38125,2.64584 h -0.26458 l -1.05833,1.32291 v -0.52916 l -0.79375,0.52916 v -0.52916 l -1.32292,0.52916 -0.26458,-1.32291 -0.79375,0.26458 0.26458,-0.79375 -1.05833,0.52917 -0.79375,-0.79375 0.26458,-0.79375 -0.52917,-0.26459 h -0.26458 c 0.48752,2.44826 2.63238,4.1736 5.02708,4.49792 -0.0956,0.98558 0.2121,1.35751 1.05834,1.85208 v 0.26459 c -1.30121,-0.46089 -1.96162,-0.84362 -3.175,0 l -1.32292,-1.32292 -1.5875,1.05833 v 0.26459 l 1.05833,-0.26459 v 0.26459 l -0.79375,0.26458 v 0.26458 l 1.32292,-0.26458 v 0.26458 l -4.23334,0.79375 v 0.26459 h 3.17501 v 0.52916 h -4.23335 l -2.910415,-2.64583 0.793755,-0.26458 -0.26459,-0.79375 c -2.187265,-0.36025 -0.837015,-2.74581 -0.529165,-4.23334 h -0.26459 l -1.5875,3.43959 1.32292,-6.08542 -1.05833,0.79375 c 1.25233,-2.15214 0.0674,-3.48259 -1.32292,-5.29167 1.30079,0.81375 2.40499,1.68923 2.91042,3.175 l 0.793755,-0.26458 c -2.261225,-5.71541 -10.562779,-5.66338 -14.287503,-9.78958 h -0.264584 l -0.529166,0.52916 c 0.152558,-0.71735 0.203088,-0.89815 -0.529167,-1.05833 l 0.264583,-1.32292 c -0.399959,-1.73308 0.898444,-4.08495 -0.79375,-5.29166 1.191304,-4.0683 3.215825,-2.96688 6.35,-3.70417 l 2.381242,0.79375 v -0.26458 c -2.224533,-0.69021 -4.201092,-1.48081 -6.614575,-0.95503 -3.816401,0.8314 -5.408439,5.99769 -4.622457,9.42169 0.631599,2.75151 3.433818,5.25064 6.209957,5.73387 2.310147,0.40211 5.334405,-0.56172 6.408795,2.46923 1.29474,3.6526 -2.38327,7.02088 -1.90599,10.8469 0.32135,2.57604 1.88337,3.78343 3.09661,5.86575 0.81654,1.40144 1.20597,3.42101 1.65037,4.98217 0.63995,2.24808 -0.25578,4.57768 0.10841,6.87917 0.51601,3.26088 2.46606,7.05003 3.870975,10.05416 -0.89626,0.028 -3.551595,0.13754 -3.704175,1.05834 -1.80052,-0.41377 -3.99975,-0.18111 -4.49792,1.85208 h 0.26459 c 1.26337,-1.09984 4.42804,-1.62738 6.08541,-1.5875 l -0.26458,0.79375 h 0.26458 l 0.26459,-0.52917 2.116665,1.32292 c 0.56037,-1.91436 -0.43046,-3.76016 -1.05833,-5.55625 h 0.26458 l 1.05834,1.32292 -0.52917,-1.5875 c -1.48009,-0.34325 -2.628735,-3.68059 -3.175005,-5.02709 h 0.26458 l 2.116675,4.23334 h 0.26458 c -0.93594,-3.42203 -4.484675,-6.33899 -2.910415,-10.05417 h 0.26458 c 2.857085,4.37152 4.497305,6.97973 4.497925,12.43542 h 0.26458 v -1.5875 h 0.26458 l 0.26459,3.96875 0.52916,-0.26459 v 1.32292 l -2.91041,2.38125 v 0.26458 c 3.12707,-1.03511 4.43008,-4.37452 3.175,-7.40833 h -0.26459 l 0.26459,3.43958 h -0.26459 l -1.05833,-6.35 h 0.26458 l 0.26459,0.79375 h 0.26458 l -0.52917,-5.02708 h -0.26458 l -0.26458,2.11667 h -0.26459 c -0.11409,-1.39491 -0.37068,-2.88494 -1.5875,-3.70417 0.67871,-1.05982 0.20962,-2.00046 -0.79375,-2.64583 l 0.79375,2.38125 c -2.407755,-1.20388 -2.871905,-4.60846 -3.439585,-6.87917 -0.26773,-1.07091 -0.13573,-2.81205 0.52917,-2.64583 v -1.85209 h 0.26458 l 0.26458,3.175 h 0.26459 v -4.49791 c 1.629235,0.16923 4.087735,2.02833 3.740505,3.96875 -0.45538,2.54477 -2.26215,3.37691 -1.88842,6.35 h 0.26458 c -0.0421,-3.40049 1.31341,-5.31732 4.23335,-7.14375 l -0.26459,-0.79375 h 1.05834 v 0.26458 h -0.52917 v 0.26458 l 6.08542,-1.05833 v 0.26458 c -2.005,0.29611 -4.36598,0.9721 -5.29167,2.91042 l 3.96875,0.26458 v 0.26459 l -0.52917,0.26458 1.05834,0.52917 v 0.26458 h -1.32292 v 0.26458 h 0.52917 v 0.26459 h -1.05834 v 0.26458 c 5.77139,2.55448 12.74498,-0.51678 18.25625,-2.38125 l -0.52916,0.79375 0.79375,-0.26458 v 0.26458 l -1.85209,0.79375 v 0.26458 l 3.70417,-0.26458 -0.52917,2.91042 c -5.20903,-1.53972 -12.06641,0.40066 -17.4625,0.26846 -1.35293,-0.0331 -5.07126,-0.70166 -4.7625,1.31904 h 0.26459 l 0.26458,-0.79375 h 0.26458 l 4.44996,12.91967 0.57713,17.77199 c 1.78784,-1.1522 1.28572,-2.181 1.05833,-3.96875 h 0.26458 c 0.84892,2.6089 1.94456,5.05126 -1.05833,6.61459 v 0.26458 c 1.72556,-0.45073 2.76693,-1.58317 2.61725,-3.43958 -0.21334,-2.646 -1.66564,-4.89589 -1.5485,-7.67292 0.21903,-5.19261 3.68372,-12.28816 0.51875,-16.93333 2.00884,0.46473 3.98866,1.23227 6.08542,1.23309 2.20275,8.4e-4 4.72048,-1.04058 6.87916,-0.5996 4.21357,0.86075 8.17948,4.15036 12.43542,5.37333 2.85638,0.8208 5.31815,0.57632 8.20208,0.61266 5.10386,0.0643 9.75577,-0.0192 14.81667,-1.06323 v -0.26459 l -4.49792,0.52917 v -0.26458 l 0.52917,-1.05834 9.26042,0.3095 13.22916,1.54259 v -0.26459 l -6.08541,-0.52916 v -0.26459 l 8.20208,-0.52916 v -0.26459 l -3.70417,0.26459 v -0.26459 l 3.43959,-1.5875 c 1.25283,-0.98564 2.74708,-0.55967 4.23333,-0.52916 v -0.26459 h -0.52917 v -0.26458 c 2.43312,0.19874 7.16656,-0.12179 8.73125,1.85208 h 0.26459 c -1.45999,-3.03786 -7.90621,-1.74351 -10.84792,-2.86121 -3.90512,-1.48375 -7.74241,-4.75392 -11.90625,-5.29208 -2.38732,-0.30854 -4.83656,-0.0937 -7.14375,0.59675 -1.73999,0.52069 -3.40086,1.5643 -5.29167,1.41171 -3.53578,-0.28531 -6.34835,-3.81323 -9.78958,-4.73351 -1.70108,-0.4549 -6.08267,-0.0902 -7.25909,-1.18755 -1.60528,-1.49746 -1.89392,-4.68198 -3.59944,-6.45392 -1.36232,-1.41537 -2.87156,-2.58183 -4.75189,-3.20522 -1.41981,-0.4707 -3.03565,-0.31816 -4.20945,-1.35415 -4.1817,-3.69073 -5.74417,-9.29743 -9.10566,-13.43332 -2.06221,-2.5373 -4.067,-5.26442 -6.26405,-7.67291 -1.36037,-1.49127 -3.4538,-3.02976 -4.06062,-5.02709 -0.47006,-1.54718 0.41032,-3.02466 0.75231,-4.49791 0.37884,-1.63199 0.2791,-3.37799 0.057,-5.02708 -0.40069,-2.97454 -2.34152,-5.13547 -3.04823,-7.89259 -0.5609,-2.188291 0.14046,-5.357561 -0.0955,-7.717831 -0.29727,-2.97291 -1.62971,-5.75035 -1.99581,-8.73125 -0.31679,-2.57953 1.64851,-5.92075 0.71801,-8.20208 m -3.96876,1.05833 0.26458,0.79375 h 0.26459 l -0.52917,-0.79375 m -1.85208,5.29167 0.52916,4.23333 h 0.26459 v -1.05833 h 0.26458 c 0,4.9819 0.61179,9.83503 -1.32292,14.55208 h -0.26458 l 1.05833,-12.43542 h -0.26458 c -0.4756,3.53195 -1.40912,6.69848 -1.31904,10.31875 0.10674,4.290221 1.19728,8.612891 1.03894,12.964591 -0.0569,1.56295 -1.18208,2.77625 -1.6318,4.23333 -0.960485,3.112 -0.449395,6.34644 0.85357,9.26041 -4.374315,1.37411 -1.19476,-2.1801 -2.429635,-4.1237 -0.79472,-1.25081 -2.81333,-1.80263 -3.92037,-2.75546 h -0.26459 v 1.32291 l 1.32292,-0.26458 -1.05833,1.85208 1.5875,-1.5875 v 0.79375 c 2.82757,0.74702 1.0493,2.69982 0.26458,4.49792 l 1.05833,-0.26458 1.05834,4.7625 h 0.26458 l -0.26458,-3.43959 h 0.26458 l 3.175005,8.20209 h 0.26458 v -0.79375 h 0.26459 l -0.26459,2.11666 h 0.26459 l 0.52916,-1.05833 h 0.26459 l -0.26459,1.5875 h 0.26459 l 0.79375,-9.525 h -0.26459 l -0.26458,0.79375 h -0.26458 v -2.11667 c -3.2728,-1.8029 -4.154565,-6.64445 -1.85209,-9.525 l 0.26459,1.05834 h 0.26458 l -0.52917,-1.85209 0.52917,1.05834 h 0.26458 l -0.50445,-10.84792 1.56279,-5.556251 h 0.26458 v 1.32292 h 0.26458 l -0.5016,-6.08542 0.5016,-11.1125 h -0.26458 v 4.23334 h -0.26458 l -0.26459,-3.43959 -1.32291,-1.32291 m 2.91042,1.05833 v 0.79375 h 0.26459 l -0.26459,-0.79375 m 0.26459,1.05833 v 0.79375 h 0.26458 l -0.26458,-0.79375 m -0.44098,0.70556 0.0882,0.17639 -0.0882,-0.17639 m -2.46945,1.67569 0.26458,0.26459 -0.26458,-0.26459 m 3.43959,0.26459 v 0.79375 h 0.26459 l -0.26459,-0.79375 m -0.79375,2.64583 0.26459,9.525 h 0.26458 l 0.52917,-9.26042 -1.05834,-0.26458 m 3.96875,4.23333 -0.26458,0.26459 0.26458,-0.26459 m 0,0.52917 -0.26458,0.26458 0.26458,-0.26458 m 0,0.79375 -0.26458,0.26458 0.26458,-0.26458 m 0,0.79375 -1.05833,6.614581 h -0.26458 l 1.32291,-6.614581 m -5.29167,1.5875 v 1.05833 h -0.26459 l 0.26459,-1.05833 m -0.79375,1.32292 c 0.3387,0.90278 0.31988,1.342191 -0.52917,1.852081 v 1.05833 h -0.26458 l 0.79375,-2.910411 m 5.29167,13.493751 -0.26458,0.26458 0.26458,-0.26458 m -6.61459,1.32291 v 0.79375 h -0.26458 l 0.26458,-0.79375 m 5.82084,0.52917 3.70417,7.40833 -1.5875,-1.5875 h -0.26458 l 0.52916,1.5875 c -1.81943,-1.5482 -3.61257,-5.08817 -2.38125,-7.40833 m -4.76251,1.05833 0.26459,0.26458 -0.26459,-0.26458 m -8.731255,1.05833 v 0.26459 l 1.05834,0.52916 -1.05834,-0.79375 m -5.291658,2.11667 1.322916,-0.52917 -0.264583,1.32292 1.852079,-0.52917 -0.793746,-1.5875 c -1.132634,-0.16084 -1.632862,0.31924 -2.116666,1.32292 m 16.668763,0 1.85208,2.64583 h -0.26458 l -1.5875,-2.64583 m 3.70416,1.32292 0.26459,0.26458 -0.26459,-0.26458 m 2.38125,0 1.32292,1.5875 -1.32292,-1.5875 m -1.32291,0.26458 0.26458,0.26458 -0.26458,-0.26458 m -3.43959,1.05833 -0.26458,0.26459 0.26458,-0.26459 m 2.11667,1.5875 -0.26458,0.26459 0.26458,-0.26459 m 0.79375,0 -0.26458,0.26459 0.26458,-0.26459 m -0.26458,0.52917 -0.26459,0.26458 0.26459,-0.26458 m -7.67293,0.26458 0.26458,0.52917 -0.26458,-0.52917 m 7.93751,0.26459 0.79375,1.05833 -0.79375,-1.05833 m -7.40834,0.52916 0.52916,1.05834 h -0.26458 l -0.26458,-1.05834 m -0.52917,0.26459 c 0.62512,1.16774 1.50337,2.3989 1.05833,3.70416 l 0.52917,1.32292 -2.11667,-2.38125 1.5875,2.91042 0.79375,-0.26459 0.26459,3.175 c -1.23202,-0.60556 -4.148385,-7.40069 -2.91042,-7.67291 v -0.26459 h -0.52917 l 1.32292,-0.52916 m -0.79375,0.79375 1.5875,1.85208 -1.5875,-1.85208 m -12.170833,0.79375 v 0.26458 h 1.322916 l -1.322916,-0.26458 m 12.170833,0.52916 0.26458,0.26459 -0.26458,-0.26459 m -12.964583,0.26459 0.529166,0.52916 -0.529166,-0.52916 m 24.077093,0.26458 -0.26458,0.26458 0.26458,-0.26458 m -9.52501,0.52917 0.26458,0.26458 -0.26458,-0.26458 m 10.84793,0 1.5875,1.5875 v 0.26458 l -0.52917,0.26458 -1.05833,-2.11666 m -2.38125,0.26458 0.26458,0.26458 -0.26458,-0.26458 m 0.26458,0.52917 0.26458,0.26458 -0.26458,-0.26458 m 1.5875,0.79375 0.26458,0.26458 -0.26458,-0.26458 m -13.758345,0.26454 2.645835,3.70417 h 0.26458 c -0.48721,-1.68629 -1.48117,-2.72408 -2.910415,-3.70417 m 12.964595,0.26458 0.26458,0.26459 -0.26458,-0.26459 m 3.175,0 0.26458,1.32292 0.52917,-0.26458 1.32292,3.70416 H 80.6516 l -2.38125,-4.49791 0.52917,-0.26459 m -0.26458,0.26459 0.52916,0.52916 -0.52916,-0.52916 m -11.72987,0.35278 0.17638,0.0882 -0.17638,-0.0882 m -4.674315,0.97013 0.26458,0.26459 -0.26458,-0.26459 m -3.96875,0.26458 2.38125,2.11666 -2.38125,-2.11666 m 4.23333,0.26458 1.587505,3.175 h 0.26459 l -1.852095,-3.175 m 1.05834,0.26458 0.26458,0.26459 -0.26458,-0.26459 m -4.49792,1.05834 1.05833,1.85208 h -0.26458 l -0.79375,-1.85208 m 6.350005,0.26458 0.52917,0.52917 -0.52917,-0.52917 m -6.350005,0.52917 1.32292,3.175 0.52916,-0.52917 0.52917,1.85208 c -1.66046,-0.58136 -2.77749,-2.76339 -2.38125,-4.49791 m 6.085425,0 0.26458,0.26458 -0.26458,-0.26458 m 0.26458,0.52913 0.26458,0.26459 -0.26458,-0.26459 m -4.497925,0.26459 0.26459,1.05833 h -0.26459 v -1.05833 m 5.556255,0 v 0.52916 h 0.52917 l -0.52917,-0.52916 m 1.85209,0 -0.52917,0.79375 0.52917,-0.79375 m -2.64584,0.26458 0.26459,0.26458 -0.26459,-0.26458 m -5.291665,0.26458 -0.26459,0.26459 0.26459,-0.26459 m 22.225015,0 v 0.79375 h 0.26458 v -0.52916 h 0.26458 c -0.14687,1.42617 -0.74998,2.52636 -1.85208,3.43958 l 1.32292,-3.70417 m -17.19793,1.05834 0.79375,-0.79375 -0.79375,0.79375 m -4.850695,-0.35278 -0.0882,0.17639 0.0882,-0.17639 m 23.636125,0.0882 -0.26459,0.26459 0.26459,-0.26459 m -22.225015,0.26459 0.26458,1.32291 h -0.26458 v -1.32291 m 21.960425,0.26458 -0.79375,1.85208 0.79375,-1.85208 m 0.79375,0.26458 v 1.05834 h -0.26458 l 0.26458,-1.05834 m -24.077095,0.26459 0.26458,0.26458 -0.26458,-0.26458 m -2.11667,0.26458 h 0.79375 l 0.26459,1.5875 h 1.32291 l -0.52916,1.32292 -0.52917,-0.26459 0.52917,0.52917 v 2.64583 h 0.26458 v -1.5875 h 0.26458 c 0,1.49865 1.21476,4.83241 0.51793,6.02478 -0.66325,1.13491 -1.89064,0.54301 -2.5611,-0.21966 -1.03908,-1.18201 -1.12771,-2.72592 -1.13183,-4.21762 h -0.26458 v 0.79375 h -0.26458 c 0.0711,-1.5513 0.45268,-2.89487 1.85208,-3.70416 v -0.26459 l -1.85208,1.85209 h -0.26459 l 1.5875,-4.49792 m 20.902105,0.52917 -0.26459,1.05833 h 0.26459 v -1.05833 m -17.462515,1.05833 -0.26459,0.26458 0.26459,-0.26458 m -2.64584,1.05833 -0.52916,1.05834 0.52916,-1.05834 m -0.79375,1.32292 0.26459,0.26458 -0.26459,-0.26458 m 18.256265,0 0.26459,0.26458 -0.26459,-0.26458 m 3.175,0 c 0.1067,0.79792 0.60825,0.62607 1.32292,0.52917 l 1.85208,1.05833 2.11667,2.64583 -3.96875,-1.5875 c -0.38488,-1.29238 -1.18513,-1.31942 -2.38125,-1.5875 l 1.05833,-1.05833 m -23.106945,0.97012 -0.0882,0.17639 0.0882,-0.17639 m 0.97012,0.52916 0.0882,0.1764 -0.0882,-0.1764 m 17.638915,0.35278 -0.26459,0.26459 0.26459,-0.26459 m 0,1.05834 -0.26459,0.26458 0.26459,-0.26458 m 6.08541,1.4111 0.0882,0.0882 c -0.13059,0.0435 -0.29279,-0.0882 -0.0882,-0.0882 m 7.9375,-0.0882 -0.26458,0.26459 0.26458,-0.26459 m 5.55625,0 v 0.26459 l -1.05833,0.52916 v 0.26459 l 2.38125,-0.26459 -1.85208,2.11667 0.26458,1.05833 1.32292,-0.79375 -1.32292,1.05834 v 0.26458 l 0.79375,0.26458 v 0.26459 l -4.23333,-2.91042 3.70416,-2.11667 m -6.08541,0.52917 1.05833,0.79375 -1.32292,-0.52917 0.26459,-0.26458 m -16.93334,0.52917 -0.26458,0.26458 0.26458,-0.26458 m 4.49792,0 1.05833,0.26458 v 0.26458 l -1.32291,-0.26458 0.26458,-0.26458 m 17.19792,0 -0.52917,0.79375 0.52917,-0.79375 m -26.98759,1.32291 0.26458,0.26459 -0.26458,-0.26459 m 4.23334,0.0882 0.0882,0.0882 c -0.13058,0.0435 -0.29278,-0.0882 -0.0882,-0.0882 m 23.01875,1.23473 v 0.26458 l 0.79375,0.26459 -0.79375,-0.52917 m -32.808345,0.52917 -0.26459,0.26458 0.26459,-0.26458 m 35.189595,0 0.52917,0.79375 -0.52917,-0.79375 m -0.26458,0.79375 -0.26459,0.26458 0.26459,-0.26458 m 0.52916,0.26458 0.52917,0.26458 v 0.26459 l -0.52917,-0.52917 m 1.05834,0.79375 0.52916,0.79375 -0.52916,-0.79375 m -20.90209,0.26458 -0.26458,0.26459 0.26458,-0.26459 m 2.38125,0 -0.26458,0.26459 0.26458,-0.26459 m -3.175,0.26459 -0.26458,0.26458 0.26458,-0.26458 m 1.32292,0 0.52917,0.26458 v 0.26458 l -0.52917,-0.52916 m 14.02292,0 -0.26459,0.26458 0.26459,-0.26458 m -30.427105,0.26458 -0.26458,0.26458 0.26458,-0.26458 m 1.5875,0 1.32292,5.02708 h 0.264585 l -1.587505,-5.02708 m 14.022935,0 -0.26458,0.26458 0.26458,-0.26458 m 22.225,0 -0.26458,0.26458 0.26458,-0.26458 m -21.69583,0.26458 0.52916,0.26459 v 0.26458 l -0.52916,-0.52917 m -15.963205,0.44098 -0.0882,0.17638 0.0882,-0.17638 m 10.936115,0.61737 v 0.26458 h 1.05834 l -1.05834,-0.26458 m -1.85208,1.5875 1.85208,-0.26459 -1.85208,0.26459 m 2.29306,-0.17639 0.17638,0.0882 -0.17638,-0.0882 m -10.495155,2.55766 -0.26459,0.26458 0.26459,-0.26458 m 10.054175,0.26458 -0.26458,0.26458 0.26458,-0.26458 m 2.91042,0 v 0.26458 h -0.79375 l 0.79375,-0.26458 m -2.38125,0.26458 -0.26458,0.26459 0.26458,-0.26459 m 0.79375,0.26459 2.11667,0.52916 v 0.26459 h -1.5875 l -0.79375,-0.52917 0.26458,-0.26458 m 2.11667,1.5875 -0.79375,-0.26459 0.79375,0.26459 m 31.48541,-0.52917 -0.26458,0.26458 0.26458,-0.26458 m -8.99583,0.52917 -0.52917,0.79375 v -0.79375 h 0.52917 m 8.73125,0 -0.79375,1.85208 h -0.26458 l 1.05833,-1.85208 m -16.13958,0.26458 2.64583,0.26458 -0.26458,1.32292 -2.64584,-1.32292 0.26459,-0.26458 m 5.55625,0 v 0.26458 l -0.79375,0.26459 0.79375,-0.52917 m -2.38125,0.35278 0.0882,0.0882 c -0.13058,0.0435 -0.29278,-0.0882 -0.0882,-0.0882 m 3.08681,0.0882 -0.0882,0.17638 0.0882,-0.17638 m -25.84098,0.0882 0.26458,0.26458 -0.26458,-0.26458 m 25.13542,0 -0.26459,0.26458 0.26459,-0.26458 m 4.49791,0 -0.26458,0.26458 0.26458,-0.26458 m -6.61458,0.26458 -0.26458,0.26458 0.26458,-0.26458 m 39.95208,0.26458 v 0.26459 h -1.05833 v 0.26458 l 3.175,0.52917 v -0.26459 h -1.05833 v -0.26458 l 3.175,1.32292 c -2.0418,0.46921 -7.10196,0.23134 -8.46667,-1.5875 l 4.23333,-0.26459 m -63.76458,0 0.26458,0.26459 -0.26458,-0.26459 m 23.8125,0.26459 -0.26458,0.26458 0.26458,-0.26458 m 2.38125,0.0882 c 0.20461,0 0.0424,0.13172 -0.0882,0.0882 l 0.0882,-0.0882 m 27.78125,-0.0882 -0.26458,0.26458 0.26458,-0.26458 m 2.64583,0 1.05834,0.26458 v 0.26458 l -1.32292,-0.26458 0.26458,-0.26458 m -2.11666,0.26458 c 1.48857,0.41931 2.96535,0.70134 4.15391,1.76756 1.10132,0.98798 1.73119,2.49966 3.00025,3.2973 1.70885,1.07403 4.88657,1.24423 6.86875,1.28514 v 0.26458 c -2.19645,-0.006 -5.71042,-0.0563 -7.66148,-1.14142 -1.19474,-0.66449 -1.76331,-2.08343 -2.73383,-3.00494 -1.0698,-1.01579 -2.54602,-1.64317 -3.89219,-2.20364 l 0.26459,-0.26458 m 4.49791,0.35278 0.0882,0.0882 c -0.13058,0.0435 -0.29279,-0.0882 -0.0882,-0.0882 m -57.67916,0.1764 v 1.05833 h 0.26458 l -0.26458,-1.05833 m 22.48958,0 -0.26458,0.26458 0.26458,-0.26458 m 50.00625,0 6.61458,2.38125 v 0.26458 l -6.61458,-0.52917 v -2.11666 m -82.020845,0.26458 0.26458,1.05833 h -0.26458 v -1.05833 m 63.235425,0.26458 2.38125,1.05834 v 0.26458 l -2.64583,-1.05833 0.26458,-0.26459 m 5.29167,0.26459 v 0.52916 l -0.52917,-0.52916 h 0.52917 m -58.7375,0.52917 v 1.32292 h 0.26458 l -0.26458,-1.32292 m -1.32292,0.52917 v 3.70417 h 0.26459 l -0.26459,-3.70417 m -3.43959,0.52917 -0.26458,0.26458 0.26458,-0.26458 m 50.00626,0.0882 c 0.20461,0 0.0424,0.13172 -0.0882,0.0882 l 0.0882,-0.0882 m -42.59792,0.70556 -0.26458,0.26458 0.26458,-0.26458 m 43.65625,0 v 0.26458 h -4.23333 l 4.23333,-0.26458 m -46.0375,0.26458 v 0.79375 h 0.26459 l -0.26459,-0.79375 m 41.01042,0 v 0.26458 h -0.79375 l 0.79375,-0.26458 m 33.07292,0.52917 0.26458,0.26458 -0.26458,-0.26458 m -16.66875,0.35278 0.0882,0.0882 c -0.1306,0.0435 -0.29277,-0.0882 -0.0882,-0.0882 m -61.55974,0.61737 0.0882,0.17638 -0.0882,-0.17638 m 61.03057,-0.17639 v 0.26458 h -0.79375 l 0.79375,-0.26458 m 16.66875,0 0.26458,0.26458 -0.26458,-0.26458 m 0.52917,0 0.26458,0.26458 -0.26458,-0.26458 m 0.52916,0 0.26459,0.26458 -0.26459,-0.26458 m -74.34791,0.52916 0.26458,0.26459 -0.26458,-0.26459 m -4.14516,0.44097 0.0882,0.17638 -0.0882,-0.17638 m 54.68057,0.0882 0.26459,0.26458 -0.26459,-0.26458 m -50.53541,0.26458 1.05833,13.75834 h 0.26458 v -1.32292 c 1.31858,-0.16643 0.34889,-1.99503 0.15925,-2.91042 -0.5905,-2.85023 -0.0251,-7.0235 -1.48216,-9.525 m -7.67293,0.26458 -0.26458,0.26458 0.26458,-0.26458 m 94.72084,0.52916 0.26459,0.26459 -0.26459,-0.26459 m -88.63541,0.52917 -0.52917,4.23333 h -0.26458 l -0.52917,-2.64583 h -0.26458 c 0.44212,3.00497 1.33591,5.97866 1.83085,8.99583 0.24095,1.46895 0.64022,3.16094 -0.39483,4.42136 -2.67087,3.25243 -10.741465,2.85909 -12.019375,6.95573 h 0.26459 c 0.92202,-1.60134 3.51666,-2.64437 5.291665,-2.91042 v 0.26458 l -4.762505,3.175 v 0.26459 l 4.49792,-2.64584 v 0.26459 c -1.65799,0.56566 -2.71794,1.27445 -3.43958,2.91041 3.503585,-2.82235 8.807715,-4.53162 11.238075,-8.57895 0.60826,-1.01294 -0.0972,-2.47092 -0.14597,-3.59188 -0.13607,-3.13001 0.40911,-8.29464 -0.77334,-11.1125 m 77.7875,0.26458 v 0.26459 c 3.0116,0.13794 5.67717,3.5003 3.96142,6.53904 -0.58292,1.03239 -2.44449,1.88061 -2.34289,3.23502 0.0905,1.20651 1.77809,1.0709 2.6148,1.07385 v -0.26458 c -0.99474,-0.0118 -2.54975,-0.0806 -1.5875,-1.32292 v 0.52917 c 2.85283,-1.1427 3.0087,-6.74129 0.95401,-8.93561 -0.92465,-0.98749 -2.3307,-1.09222 -3.59984,-1.11856 m 10.31875,0.26459 0.26458,0.26458 -0.26458,-0.26458 m -92.51599,0.97013 0.0882,0.17638 -0.0882,-0.17638 m 91.98682,-0.17639 -0.52917,0.79375 0.52917,-0.79375 m -92.60418,0.26458 0.26459,0.26458 -0.26459,-0.26458 m 1.32292,0 -0.26458,1.85208 h 0.26458 v -1.85208 m -2.64583,0.79375 1.05833,1.32292 -1.05833,-1.32292 m 92.86876,0.26458 -0.26459,0.52917 0.26459,-0.52917 m -96.308355,0.26459 v 0.26458 l -2.64583,0.26458 2.64583,-0.52916 m -2.91041,0.52916 -0.26459,0.26459 0.26459,-0.26459 m 98.689595,0 0.26458,0.26459 -0.26458,-0.26459 m -0.26458,0.52917 0.26458,0.26458 -0.26458,-0.26458 m -98.513205,0.61736 0.17638,0.0882 -0.17638,-0.0882 m 2.46944,-0.0882 v 0.26458 l 0.79375,0.52917 1.85208,-0.52917 v -0.26458 h -2.64583 m 95.779175,0.26458 0.26459,0.26458 -0.26459,-0.26458 m -98.425015,0.79375 v 0.26458 l 3.175,-0.26458 h -3.175 m 6.614595,1.05836 0.26458,0.26459 -0.26458,-0.26459 m 91.81042,0.26459 0.26459,0.26458 -0.26459,-0.26458 m 0,0.79375 0.26459,0.26458 -0.26459,-0.26458 m -3.175,0.79375 v 0.26458 l -2.11666,0.79375 2.11666,-1.05833 m 2.91042,0.52916 0.26458,0.26459 -0.26458,-0.26459 m -0.26458,0.79375 0.26458,0.26459 -0.26458,-0.26459 m -78.84584,0.79375 v 2.64584 h -0.26458 l 0.26458,-2.64584 m 77.17013,0.0882 0.17641,0.0882 -0.17641,-0.0882 m 0.79375,0 0.17641,0.0882 -0.17641,-0.0882 m -1.76388,0.17639 0.26459,0.26458 -0.26459,-0.26458 m -88.63542,7.9375 -0.26459,0.26458 0.26459,-0.26458 m 0.52916,0.79375 v 0.26458 l -1.058335,0.26458 1.058335,-0.52916 m 0,1.05833 -3.704165,3.175 3.704165,-3.175 m -2.645835,3.17501 v 0.26458 l 4.762505,-3.175 -4.762505,2.91042 m -2.38125,-2.64583 0.26458,0.26458 -0.26458,-0.26458 m 16.051415,0.35277 0.17637,0.0882 -0.17637,-0.0882 m -2.29307,0.17639 v 0.26459 h 1.5875 l -1.5875,-0.26459 m -1.05833,0.26458 0.26458,0.26458 -0.26458,-0.26458 m -13.758345,0.26458 0.26458,0.26458 -0.26458,-0.26458 m 11.112515,0.52917 v 0.26458 l 2.38125,-0.52917 -2.38125,0.26459 m -10.054185,0.26459 0.26458,0.26458 -0.26458,-0.26458 m 8.731255,0.26458 v 0.26459 l 1.05834,-0.26459 h -1.05834 m -3.52777,0.35279 0.17638,0.0882 -0.17638,-0.0882 m 2.46944,-0.0882 v 0.26458 h 0.79375 l -0.79375,-0.26458 m -3.175,0.26458 -0.529175,0.26458 v 0.26459 l 0.529175,-0.52917 m 1.32291,0 v 0.26458 h 1.5875 z"
       style="fill:url(#linearGradient2);fill-opacity:1;stroke:none;stroke-width:0.2;stroke-dasharray:none;stroke-opacity:1"
       id="path1-6"
       inkscape:export-filename="blog4.svg"
       inkscape:export-xdpi="96"
       inkscape:export-ydpi="96" /></g></svg>
