<?xml version="1.0" encoding="UTF-8" standalone="no"?>
<!-- Created with Inkscape (http://www.inkscape.org/) -->

<svg
   width="72.971458mm"
   height="141.28749mm"
   viewBox="0 0 72.971458 141.28749"
   version="1.1"
   id="svg1"
   xml:space="preserve"
   xmlns:inkscape="http://www.inkscape.org/namespaces/inkscape"
   xmlns:sodipodi="http://sodipodi.sourceforge.net/DTD/sodipodi-0.dtd"
   xmlns:xlink="http://www.w3.org/1999/xlink"
   xmlns="http://www.w3.org/2000/svg"
   xmlns:svg="http://www.w3.org/2000/svg"><sodipodi:namedview
     id="namedview1"
     pagecolor="#ffffff"
     bordercolor="#cccccc"
     borderopacity="1"
     inkscape:showpageshadow="0"
     inkscape:pageopacity="1"
     inkscape:pagecheckerboard="0"
     inkscape:deskcolor="#d1d1d1"
     inkscape:document-units="mm"><inkscape:page
       x="0"
       y="0"
       width="72.971458"
       height="141.28749"
       id="page2"
       margin="0"
       bleed="0" /></sodipodi:namedview><defs
     id="defs1"><linearGradient
       id="linearGradient7-1"><stop
         style="stop-color:#f1ff2e;stop-opacity:1;"
         offset="0"
         id="stop7" /><stop
         style="stop-color:#ff00a2;stop-opacity:0.80234164;"
         offset="1"
         id="stop8" /></linearGradient><linearGradient
       inkscape:collect="always"
       xlink:href="#linearGradient7-1"
       id="linearGradient8"
       x1="103.28699"
       y1="125.34216"
       x2="169.42155"
       y2="156.18121"
       gradientUnits="userSpaceOnUse"
       gradientTransform="translate(-55.298397,-9.5215783)" /></defs><g
     inkscape:label="Calque 1"
     inkscape:groupmode="layer"
     id="layer1"
     transform="translate(-44.570099,-60.596425)"><path
       style="fill:url(#linearGradient8);stroke:none;stroke-width:0.5;stroke-dasharray:none"
       d="m 54.305553,148.17351 c -0.25808,3.84219 -0.34178,7.79135 0.0355,11.64166 0.17881,1.82476 0.90224,4.2793 0.52304,6.08542 -0.30263,1.44135 -1.8854,1.86242 -2.81365,2.77567 -1.39506,1.37254 -1.51999,3.95721 -0.80478,5.68977 1.66343,4.0296 7.45533,2.9368 10.734,2.22079 1.67261,-0.36527 3.85154,0.40318 3.96753,-1.95498 h 17.99166 v -12.96458 h 3.43959 c 0,1.09838 0.27601,2.62972 -0.12495,3.66374 -0.22166,0.57163 -0.80184,0.8785 -1.09998,1.40376 -0.58931,1.03825 -0.9785,3.25856 -1.11958,4.4575 -0.1584,1.34615 -0.0381,2.87485 0.84642,3.96263 1.89356,2.32852 4.50502,0.42773 5.21818,-1.84597 0.78525,-2.50357 -1.06384,-5.55174 -1.54708,-7.9375 -0.41624,-2.05501 -0.0563,-4.51788 -0.0563,-6.61458 h 0.26459 c 0.94506,3.74481 0.67822,7.82017 1.6218,11.64167 0.30578,1.23842 0.72943,3.44772 2.08726,3.9761 1.76352,0.68624 3.44408,-4.34316 3.87444,-5.5636 1.4085,-3.99439 1.42139,-8.27245 1.69284,-12.43542 0.17403,-2.66896 0.64994,-5.56356 -0.0159,-8.20208 h 15.345837 v -0.26459 H 103.5181 c -1.05551,0 -3.29639,0.42004 -4.107157,-0.39075 -0.82968,-0.82968 -0.59478,-4.0012 -0.65902,-5.1655 -0.18223,-3.30267 -0.92751,-6.60907 -2.46087,-9.525 -0.78435,-1.49158 -1.09541,-4.14899 -3.35628,-3.175 -1.00572,-3.97443 -1.01546,-8.01349 -2.49027,-11.90625 -1.62439,-4.28756 -4.75016,-7.90851 -6.95879,-11.90624 -1.67179,-3.02605 -3.27841,-7.436858 -5.9127,-9.736918 -1.99728,-1.74388 -6.20529,-1.24619 -8.71533,-1.57157 -1.28625,-0.16674 -2.42854,-0.25055 -3.22032,-1.46012 -1.82319,-2.785219 2.06597,-4.930039 0.93706,-7.863989 -0.28364,-0.7372 -0.98354,-1.17384 -1.33149,-1.87291 -0.73212,-1.47092 -0.85536,-3.51806 -2.2269,-4.595909 -3.46319,-2.721588 -9.06399,-1.21526 -10.29793,3.024329 h -0.26458 l -0.75823,-9.260415 0.0992,-3.439583 -2.51598,-5.291667 h 1.5875 c -0.43545,-1.800019 -2.14043,-1.87713 -3.70417,-1.5875 l 0.52917,-1.5875 c -2.70378,0.822738 -3.988496,5.00244 -2.47924,7.408334 0.80693,1.286339 2.55758,2.025522 3.10639,3.444476 0.61503,1.590148 -0.21168,4.180753 -0.47159,5.81594 -0.52028,3.273242 -1.34129,6.732105 -1.34129,10.054165 0,2.14075 0.75371,4.218709 0.81703,6.349999 0.0699,2.35394 -1.08389,4.49313 -0.56469,6.879168 1.58413,7.28017 7.32582,13.59375 8.78636,20.90208 0.23901,1.19593 0.56456,3.88007 0.25479,5.02708 -0.28741,1.06423 -1.43014,1.70767 -1.41111,2.91042 0.02,1.26425 1.37236,1.96838 1.53483,3.175 0.16326,1.21258 -0.50887,2.76677 -0.71291,3.96875 -0.41601,2.4507 -0.62663,4.94054 -0.86846,7.40833 -0.0977,0.99663 0.34947,2.80226 -0.42628,3.578 -0.63361,0.63362 -1.9735,0.39075 -2.78425,0.39075 m -3.70401,-87.047908 -1.05833,2.910416 h 0.26458 l 0.52917,-1.322916 h 0.26458 v 1.058333 h 0.26459 c 0.31522,-1.806398 2.16106,-1.29871 2.91041,0 l -1.32291,-0.264583 c -0.74433,2.618493 2.02664,3.868546 2.29183,6.35 0.12078,1.130195 -0.25296,2.283194 -0.13964,3.439583 0.6211,6.338098 1.12265,12.722168 1.55197,19.049997 h 0.26459 l -0.52917,-5.027079 1.32292,0.79375 c -0.68334,-2.67167 -0.76085,-4.61619 0.26458,-7.143752 l 0.79375,0.264582 0.26458,-1.058332 1.5875,0.79375 h 0.26459 l 3.175,0.529172 -0.26459,-0.793755 1.5875,0.529165 -0.26458,-1.058332 c 2.24521,0.37807 2.6733,3.350022 2.91042,5.291672 1.68634,-1.21686 2.29966,0.53348 2.09462,2.11543 -0.11891,0.91745 -0.82455,1.35065 -1.21146,2.13382 -0.64994,1.315629 -1.12177,2.849049 -1.67691,4.217409 h 0.26458 l 0.79375,-1.85208 h 0.26458 c 0.7054,3.74018 1.50132,8.419138 0.79375,12.170828 h -0.26458 c -0.67435,-2.02854 -1.59213,-3.27333 -3.43958,-4.385218 -1.62061,-0.97536 -4.13065,-1.6823 -4.23334,-3.81686 h -0.26458 l -0.79375,2.11667 -1.5875,-2.11667 5.02708,8.202078 2.38125,-2.38125 3.175,5.82083 c 0.19527,-1.64462 -0.0133,-5.24007 1.88761,-5.95802 0.92002,-0.34749 2.23601,0.16273 3.13948,0.40178 l -3.70417,-7.143748 c 2.43581,0.076 4.99371,0.40096 7.40833,0.72514 1.22015,0.16382 2.37226,0.16838 3.24727,1.16859 2.29652,2.62511 3.69744,6.223418 5.44356,9.218768 0.68734,1.17907 2.09592,2.57965 2.27223,3.96874 0.3358,2.64564 -3.13757,3.94552 -5.14222,3.43959 v 0.26458 l 2.11666,1.85208 4.23334,-3.70416 c 2.20206,3.0766 3.84721,6.06575 4.70493,9.78958 0.91841,3.98738 0.74646,8.33048 2.17423,12.17083 l 1.32292,-0.52916 -0.79375,1.05833 v 0.26458 c 2.18141,2.05334 1.85019,4.36778 1.85208,7.14375 h 0.26459 v -2.91041 h 0.26458 l 0.79375,9.26041 -3.0476,-0.23519 0.13718,-5.85022 1.05834,0.26458 v -0.26458 l -0.79375,-0.26459 -0.52917,-3.70416 h -0.26458 c -0.11566,1.72186 -0.40239,4.23842 -2.11667,5.02708 0.17042,-0.90354 1.01877,-6.34217 -1.2825,-5.08343 -1.21157,0.66271 -1.10508,2.34826 -2.42167,2.96676 l 0.68964,-5.02708 1.01055,-2.38125 -3.55227,-11.37708 h -0.26458 l 0.52916,1.5875 -2.72667,-1.44418 -1.88394,-4.37666 -2.26855,-5.02708 0.52916,0.26458 v -0.26458 l -1.32291,-1.05833 0.79375,2.11666 c -5.72628,3.40313 -12.15432,5.22931 -18.78542,4.53345 -1.77719,-0.1865 -4.79907,-0.13437 -6.26058,-1.29353 -1.02717,-0.81467 -1.50279,-2.85848 -2.01377,-4.03367 -1.56481,-3.59893 -3.28531,-7.18919 -4.69023,-10.84791 0.93795,0.5478 1.79145,1.36293 2.91041,1.5287 2.10194,0.3114 4.11261,-1.68628 4.43912,-3.64537 0.20791,-1.247478 -1.44904,-3.910218 0.0588,-4.233328 v -0.26458 c -1.45768,-0.37902 -1.49899,-2.12187 -1.5875,-3.43959 h -0.26458 c 0.13961,2.07858 1.47709,4.88259 0.47159,6.87427 -1.13383,2.245898 -5.16955,2.552008 -6.12583,0.005 -0.6326,-1.68494 0.19837,-3.58283 0.0612,-5.29167 -0.2156,-2.68658 -0.91883,-5.211369 -0.74108,-7.937499 0.28206,-4.32595 1.75484,-8.633975 1.83004,-12.964581 0.044,-2.533599 -2.41048,-3.028239 -3.37589,-5.027084 -0.59683,-1.23568 0.0827,-2.215417 0.20701,-3.439583 h -0.26458 v 0.79375 h -0.26459 c 0.008,-1.897252 0.81047,-3.160983 2.38125,-4.233333 m -1.58746,2.116566 -0.26458,1.322917 h 0.26458 v -1.322917 m 1.32292,0.529167 -0.26458,1.322917 h 0.26458 v -1.322917 m -1.05833,0.264583 v 1.322917 h 0.26458 l -0.26458,-1.322917 m 12.7,19.843755 v 0.26458 h 2.64583 l -2.64583,-0.26458 m -3.96875,1.5875 2.38125,-0.79375 c -0.73563,-0.98518 -1.95181,-0.0672 -2.38125,0.79375 m 5.29166,-0.52917 -0.26458,0.26458 1.05833,1.05834 -0.26458,-1.32292 h -0.52917 m -3.96875,0.79375 v 1.32292 h 0.79375 l -0.26458,-1.32292 h -0.52917 m 1.85209,1.32292 c 0,1.18191 -0.214,2.21002 1.05833,2.64583 v -0.26458 l -1.05833,-2.38125 m -10.05417,2.38125 c 0.15414,1.338939 0.80434,1.789719 2.11667,1.852079 v -0.26458 l -2.11667,-1.587499 m 13.75833,0.26458 c -1.2156,1.051489 -2.34384,1.682299 -3.96875,1.322919 v 0.26458 c 1.31683,0.41274 3.73115,0.0439 3.96875,-1.587499 m -8.46666,0.52917 3.96875,5.820829 h 0.26458 v -1.05833 c 2.18758,1.27929 4.70037,1.4448 6.08542,-1.05834 -0.91577,0.58587 -1.7998,1.42825 -2.91042,1.61935 -3.45926,0.59522 -5.2271,-3.67399 -7.40833,-5.323509 m 23.28333,7.672909 0.26458,4.762498 h -0.26458 l -0.79375,-1.85208 2.22079,7.40833 0.68963,3.175 -1.5875,-13.493748 h -0.52917 m -29.36875,0.52917 -0.26458,0.26458 0.26458,-0.26458 m 10.31875,2.910418 c 0.35649,2.72254 2.40282,7.32361 5.02708,8.46666 l -3.17132,-4.7625 -1.85576,-3.70416 m 3.70417,3.43958 c 0.95723,2.26844 3.80233,4.46651 5.82083,5.82083 -0.87197,-2.05936 -3.96958,-4.57243 -5.82083,-5.82083 m 6.87916,6.35 1.85209,1.32291 -1.85209,-1.32291 m 11.90623,2.11666 0.26459,0.26459 -0.26459,-0.26459 m 2.64584,2.38125 2.91041,6.61459 h 0.26459 c -0.30861,-2.52708 -1.18485,-4.93528 -3.175,-6.61459 m 3.96915,11.1125 c -1.79863,-1.06892 -3.17927,-1.58606 -5.29167,-1.5875 v -0.26458 c 1.17339,-0.27703 1.89971,-0.72875 2.38125,-1.85208 2.10499,0.47159 2.5142,1.73113 2.91042,3.70416 m -1.32292,-2.91041 0.26458,0.26458 -0.26458,-0.26458 m -4.23333,1.32291 v 0.26459 h -0.79375 l 0.79375,-0.26459 m -1.05834,0.26459 c 1.27757,1.03593 3.87808,0.14816 5.55503,1.17347 1.31893,0.80643 1.23297,1.67425 1.35967,3.05986 0.29429,3.2186 -0.71321,5.31217 -1.88761,8.20208 h -0.26459 c -0.006,-1.7553 -0.45663,-2.62854 -1.85208,-3.70416 l 0.52917,3.175 c -1.60981,-0.76668 -3.46493,-1.78826 -5.3272,-1.28617 -1.00833,0.27186 -2.05153,2.01184 -3.07087,1.75654 -3.30317,-0.82732 -0.7796,-7.42522 0.53529,-8.92112 0.70693,-0.80424 1.65024,-1.28681 2.30653,-2.13259 -3.62117,1.71479 -5.22481,4.12988 -9.525,2.91042 0.59739,0.6593 1.42555,1.09426 1.91823,1.85699 1.74371,2.69949 2.90445,9.18123 -1.38907,10.04926 l -0.79375,-3.70417 -1.32291,-1.85208 h -0.26459 v 1.85208 h -0.26458 c -1.21769,-1.66854 -4.00252,-5.0035 -6.35,-4.6204 -1.27374,0.20787 -2.15566,1.29063 -3.175,1.97457 0,-0.75968 0.12079,-1.65165 -0.12494,-2.38125 -0.38625,-1.14678 -3.44601,-4.92369 -0.13474,-5.28554 0.80745,-0.0882 1.8205,0.42285 2.64093,0.52304 v 0.26458 c -1.2812,0.89181 -2.24879,2.11685 -2.38125,3.70417 h 0.52917 c 0.10612,-1.27175 1.01771,-3.09169 2.39717,-3.43101 1.774,-0.43636 4.02128,1.50651 6.06949,1.24574 5.02714,-0.64001 9.4087,-3.3536 14.2875,-4.42931 m -4.7625,1.85208 0.26459,0.26458 -0.26459,-0.26458 m -0.52916,0.52917 0.26458,0.26458 -0.26458,-0.26458 m -15.08125,0.79375 0.26458,0.26458 -0.26458,-0.26458 m -4.23334,0.26458 0.26459,0.26458 -0.26459,-0.26458 m 4.7625,0 0.26459,0.26458 -0.26459,-0.26458 m 0.52917,0.26458 0.26458,0.26459 -0.26458,-0.26459 m -5.55625,0.26459 0.26458,0.26458 -0.26458,-0.26458 m 38.71736,4.6743 0.0882,0.1764 -0.0882,-0.1764 m -19.66736,2.73403 0.26458,0.26458 -0.26458,-0.26458 m 20.6375,1.32292 0.52917,1.05833 h 0.26458 l -0.79375,-1.05833 m -37.57083,0.52916 -0.26459,6.87917 h -0.79375 l 0.52917,-6.87917 h 0.52917 m 40.48125,1.32292 0.52916,8.20208 h -0.26458 l -0.28051,-5.55625 0.0159,-2.64583 m -14.02292,25.92917 -1.5875,-0.26459 0.7619,-17.99166 2.94227,-6.08542 c 1.87572,0.91005 -0.96795,4.50649 -1.35477,6.08542 -0.73098,2.98375 -0.49614,6.2122 -0.49732,9.26041 -10e-4,2.99052 -0.26458,5.98695 -0.26458,8.99584 m 11.81806,-23.98889 0.17638,0.0882 -0.17638,-0.0882 m -37.74723,0.70555 1.02404,5.82084 1.35721,17.99166 h -1.5875 l -0.52916,-15.875 h -0.26459 l 0.52917,12.96459 -0.52917,5.82083 h -0.26458 l -0.79372,-2.11667 -1.5875,2.38125 c 2.20997,0.96736 0.98158,2.44173 -0.26458,3.70417 l 3.70416,-5.02708 h 0.26459 v 2.38125 h -1.05834 v 0.26458 c 0.99603,0.34116 1.04182,0.8509 1.05834,1.85208 l -2.11667,-0.52916 v 0.26458 c 1.45363,0.24261 1.82913,0.97195 1.85208,2.38125 h 3.70417 v 0.26458 l -5.82083,0.52917 v 0.26458 l 9.26041,-1.05833 c -0.2108,1.7513 -1.8084,1.20653 -3.175,1.4944 -2.25191,0.47437 -9.10209,2.40133 -9.525,-1.22982 l 3.43959,0.52917 v -0.26458 l -3.175,-0.79375 v -0.26459 l 1.5875,-1.05833 -1.5875,0.79375 c -0.84758,-2.66612 0.19438,-8.10571 3.96875,-6.87917 v -17.19791 h 0.26458 v 0.52916 h 0.26458 l -0.52916,-7.9375 h 0.52916 m 34.925,0.52917 c -0.0913,1.35943 0.18232,4.34417 -1.05833,5.02708 0,-1.64159 -0.57939,-4.12854 1.05833,-5.02708 m -0.52916,5.29167 c 0,5.92489 0.10165,11.88907 1.21878,17.72708 0.29119,1.52169 2.26271,4.76569 0.6333,5.55625 l -1.92068,-7.40833 -0.72515,-15.875 h 0.79375 m 5.02708,0 -0.0465,11.393 -1.01179,8.45075 c -1.4483,-0.83955 -1.57431,-3.49112 -1.78349,-5.02709 -0.66993,-4.91912 -0.59776,-9.85593 -0.59776,-14.81666 h 3.43958 m 1.32292,0 c 0,5.87057 0.0516,11.68137 -1.05834,17.4625 h -0.26458 l 0.79375,-17.4625 h 0.52917 m -11.1125,3.43958 v 6.35 h -3.175 v -6.35 h 3.175 m 2.29302,5.73265 -0.0882,0.17637 0.0882,-0.17637 m 0.0882,0.88195 -0.26459,0.26459 0.26459,-0.26459 m -14.2875,3.43959 -1.5875,7.40833 h 0.26458 c 0.30481,-1.20775 0.22954,-2.533 0.73741,-3.68824 0.28935,-0.6582 0.8093,-1.08044 1.38048,-1.49318 0.41336,-0.29869 0.85354,-0.60251 1.32169,-0.80968 3.3896,-1.49994 3.31473,3.56313 3.19093,5.46193 -0.0625,0.95851 0.16926,2.51725 -0.51079,3.31219 -0.45922,0.5368 -1.30302,0.23512 -1.88639,0.1274 -0.18463,1.10779 -4.32338,0.50895 -5.29166,0.26458 0.47925,-1.81809 3.12337,-0.78934 4.49791,-0.52917 v -0.2646 l -4.49791,-0.52917 0.79375,-1.85208 h -0.26459 l -0.79375,3.43958 h -6.87916 l -0.52917,-3.96875 c 1.83708,-1.07817 1.58612,-4.84599 1.5875,-6.87916 h 8.46667 m 6.35,2.91041 0.52916,7.9375 h -1.5875 l 0.47772,-5.29166 0.58062,-2.64584 m -5.29167,0.79375 v 0.26459 l 3.70417,0.52916 c -0.99155,-1.02446 -2.36343,-0.79375 -3.70417,-0.79375 m 6.08542,7.14375 v -6.61458 c 1.70956,0.45065 1.70956,6.16393 0,6.61458 m 7.14375,0.79375 h 0.26458 l 0.52917,-2.64583 h 0.26458 c 0.0706,0.61226 0.21315,1.23402 0.13475,1.85208 -0.1774,1.39851 -1.49353,3.14925 -3.00352,1.9905 -1.66342,-1.27648 -0.96417,-4.41477 0.7521,-5.1655 v 5.02709 h 0.26459 c 0.20617,-2.6225 0.94929,-7.51514 -2.91042,-6.08542 0.2522,-1.86678 2.65874,-3.47454 3.91118,-1.28127 0.93799,1.6426 0.2301,4.59928 -0.20701,6.30835 m -29.63334,-6.61458 -0.26458,5.82083 h -0.79375 v -6.08541 l 1.05833,0.26458 m 16.40417,-0.26458 v 0.52916 l 3.43958,0.52917 c -0.9441,-0.99254 -2.12359,-1.05387 -3.43958,-1.05833 m -11.37708,2.11666 0.26458,3.70417 h -5.02708 v -5.29167 l 4.7625,1.5875 m 11.1125,-0.52916 v 0.26458 l 3.43958,0.52917 -3.43958,-0.79375 m -21.43125,1.32291 -0.79375,3.175 -0.79375,-0.26458 v 0.26458 l 1.05833,0.26459 0.52917,-3.43959 m 5.82083,0.26459 v 0.52916 h 0.52917 v -0.52916 h -0.52917 m 16.93333,2.11666 v 0.26459 h 0.79375 l -0.79375,-0.26459 m 6.08542,1.05834 v 1.5875 h -24.60625 l -0.26458,-1.5875 h 24.87083 m 5.82083,0.52916 -0.26458,0.52917 0.26458,-0.52917 m -19.05,3.43959 0.26459,0.26458 -0.26459,-0.26458 m -2.38125,0.52916 0.26459,0.26459 -0.26459,-0.26459 m 48.683337,3.43959 0.26458,0.26458 -0.26458,-0.26458 m -63.235417,0.52916 0.26458,0.26459 -0.26458,-0.26459 m -2.46945,0.35279 0.1764,0.0882 -0.1764,-0.0882 m 4.05695,0.17642 0.26458,0.26458 -0.26458,-0.26458 m 0.26458,0.79375 0.26459,0.26458 -0.26459,-0.26458 m 2.38125,0 0.26459,0.26458 -0.26459,-0.26458 m 2.64584,0.79375 0.26458,0.26458 -0.26458,-0.26458 m -1.5875,0.26458 0.26458,0.26459 -0.26458,-0.26459 m 3.175,0.26459 0.26458,0.26458 -0.26458,-0.26458 m 1.85208,0.52916 0.26458,0.26459 -0.26458,-0.26459 m -1.5875,0.26459 0.26458,0.26458 -0.26458,-0.26458 m 3.175,0.26458 0.26458,0.26458 -0.26458,-0.26458 m -0.52917,0.52917 0.26459,0.26458 -0.26459,-0.26458 m 19.31459,5.29162 0.26458,0.26459 -0.26458,-0.26459 m -1.32292,0.26459 0.26458,0.26458 -0.26458,-0.26458 m 2.11667,0 0.26458,0.26458 -0.26458,-0.26458 m -1.32292,0.26458 0.26458,0.26458 -0.26458,-0.26458 m 20.108327,5.55625 0.26459,0.26458 -0.26459,-0.26458 m 2.64584,0.79375 0.26458,0.26458 -0.26458,-0.26458 m 8.99583,3.43958 0.26458,0.26459 -0.26458,-0.26459 m 1.85208,0 0.26459,0.26459 -0.26459,-0.26459 m -1.05833,0.26459 0.26458,0.26458 -0.26458,-0.26458 m 0.79375,0.26458 0.26458,0.26458 -0.26458,-0.26458"
       id="path7"
       sodipodi:nodetypes="csssssccccssscssccsssscccsssscssssssssccccccccsssscssssssssccccccccccssccccccccccccccssccccccscccccccsccssssccccscccccccccccccccccscccccccccccccssscssccccsscssscccccccccccccccccccccccccccccccccccccccccccccccccccsccccccccccccccccccccccccccccccccccccccccccssccccsssccsccccccscscccccssccccccccccccccccccccccccccccccccccccccccccccccscccccccccccccccccccccccccccccccsccccccccccccccccccscccccccscccccccccccccccccccccsscssccccccccccccccccccccccccccccssccccsccccccccccccccccccccccccccccccccccccccccccccccccccccccccccccccccccccccccccccccccccccccccccccccccccccccccccccccccccccc"
       inkscape:export-filename="blog6.svg"
       inkscape:export-xdpi="96"
       inkscape:export-ydpi="96" /></g></svg>
